<svg xmlns="http://www.w3.org/2000/svg" x="0px" y="0px" viewBox="6.266407012939453 6.238999843597412 35.46709442138672 35.5221061706543" enable-background="new 0 0 48 48">
<g>
	
		<path fill="#000000" stroke="#1EFF00FF" stroke-width="1.5" stroke-linecap="round" stroke-linejoin="round" stroke-miterlimit="10" d="   M7.4473,31.3477c-0.4616,0.8506,0.3503,1.8412,1.2515,1.4885c0.6364-0.2491,1.2876-0.5722,1.8845-0.9906   c0.623-0.4392,1.195-0.9294,1.6852-1.4197c1.8282,2.9313,5.2395,4.9025,9.1206,4.9025c1.9405,0,3.7483-0.4903,5.311-1.338   c2.4512-1.338,4.2794-3.5747,4.9433-6.2303c-0.6741-2.6759-2.5227-4.9229-4.9944-6.2609   c-1.5524-0.8273-3.3398-1.3073-5.2599-1.3073c-3.7279,0-7.0064,1.8077-8.8755,4.5449c-0.4801-0.5413-1.0724-1.0724-1.7874-1.4809   c-0.8-0.4633-1.6205-0.7865-2.376-1.0119c-0.9208-0.2748-1.6759,0.7261-1.1728,1.5448c0.5967,0.9708,1.0975,2.3084,1.0975,4.0632   C8.275,29.3343,7.9178,30.4807,7.4473,31.3477z"/>
	
		<path fill="#000000" stroke="#1EFF00FF" stroke-width="1.5" stroke-linecap="round" stroke-linejoin="round" stroke-miterlimit="10" d="   M23.6537,20.1921c0,0-1.2829-1.6988-3.6676-2.7827c-1.0044-0.4565-1.9132-0.6904-2.6463-0.8061   c-1.0022-0.1582-1.9456,0.5021-2.1228,1.5011l-0.8104,4.5687C14.4066,22.6731,17.2471,19.609,23.6537,20.1921z"/>
	
		<path fill="#000000" stroke="#1EFF00FF" stroke-width="1.5" stroke-linecap="round" stroke-linejoin="round" stroke-miterlimit="10" d="   M18.5607,34.9678l-0.8972,2.1964c-0.3339,0.8175,0.2824,1.7292,1.1643,1.6837c0.7714-0.0398,1.6933-0.2108,2.5612-0.6866   c2.0325-1.1142,2.6388-3.1452,2.6388-3.1452S20.9207,35.7734,18.5607,34.9678z"/>
	<path fill="none" stroke="#1EFF00FF" stroke-width="1.5" stroke-linecap="round" stroke-linejoin="round" stroke-miterlimit="10" d="   M23.3425,27.8522c0,2.1653,0.6854,4.8388,3.3577,6.1383c2.4512-1.338,4.2794-3.5747,4.9433-6.2303   c-0.6741-2.6759-2.5227-4.9229-4.9944-6.2609C23.842,23.0843,23.3425,25.4929,23.3425,27.8522z"/>
	
		<circle fill="none" stroke="#1EFF00FF" stroke-width="1.5" stroke-linecap="round" stroke-linejoin="round" stroke-miterlimit="10" cx="26.9545" cy="26.7273" r="0.1136"/>
</g>
<g>
	<path fill="none" stroke="#000000" stroke-width="1.5" stroke-linecap="round" stroke-linejoin="round" stroke-miterlimit="10" d="   M37.6563,27.114v6.7726c0,1.2971-1.0515,2.3486-2.3486,2.3486c-1.2971,0-2.3486-1.0515-2.3486-2.3486l1.0135,0.4108"/>
	
		<line fill="none" stroke="#000000" stroke-width="1.5" stroke-linecap="round" stroke-linejoin="round" stroke-miterlimit="10" x1="37.6563" y1="6.989" x2="37.6563" y2="20.416"/>
</g>
<g>
	
		<circle fill="#000000" stroke="#1EFF00FF" stroke-width="1.5" stroke-linecap="round" stroke-linejoin="round" stroke-miterlimit="10" cx="37.6563" cy="23.7433" r="3.3272"/>
</g>
<g>
	
		<circle fill="#000000" stroke="#1EFF00FF" stroke-width="1.5" stroke-linecap="round" stroke-linejoin="round" stroke-miterlimit="10" cx="29.959" cy="12.8487" r="1.3915"/>
	
		<circle fill="#000000" stroke="#1EFF00FF" stroke-width="1.5" stroke-linecap="round" stroke-linejoin="round" stroke-miterlimit="10" cx="10.459" cy="40.5799" r="0.4312"/>
</g>
</svg>